<svg width="97" height="96" viewBox="0 0 97 96" fill="none" xmlns="http://www.w3.org/2000/svg">
<g filter="url(#filter0_di_260_516)">
<path fill-rule="evenodd" clip-rule="evenodd" d="M16.3535 20.01V39.83C16.3535 42.448 17.6255 44.897 19.8165 46.332C26.5865 50.768 41.5135 60.01 48.3535 60.01C55.1935 60.01 70.1205 50.768 76.8905 46.332C79.0805 44.897 80.3535 42.448 80.3535 39.83V20.01C80.3535 13.382 74.9805 8.01001 68.3535 8.01001H28.3535C21.7265 8.01001 16.3535 13.382 16.3535 20.01ZM31.3535 20.01C30.5579 20.01 29.7948 20.3261 29.2322 20.8887C28.6696 21.4513 28.3535 22.2144 28.3535 23.01C28.3535 23.8057 28.6696 24.5687 29.2322 25.1313C29.7948 25.6939 30.5579 26.01 31.3535 26.01H49.3535C50.1492 26.01 50.9122 25.6939 51.4748 25.1313C52.0374 24.5687 52.3535 23.8057 52.3535 23.01C52.3535 22.2144 52.0374 21.4513 51.4748 20.8887C50.9122 20.3261 50.1492 20.01 49.3535 20.01H31.3535ZM31.3535 34.01C30.5579 34.01 29.7948 34.3261 29.2322 34.8887C28.6696 35.4513 28.3535 36.2144 28.3535 37.01C28.3535 37.8057 28.6696 38.5687 29.2322 39.1313C29.7948 39.6939 30.5579 40.01 31.3535 40.01H61.3535C62.1492 40.01 62.9122 39.6939 63.4748 39.1313C64.0374 38.5687 64.3535 37.8057 64.3535 37.01C64.3535 36.2144 64.0374 35.4513 63.4748 34.8887C62.9122 34.3261 62.1492 34.01 61.3535 34.01H31.3535Z" fill="#FFD666"/>
</g>
<g style="mix-blend-mode:overlay" filter="url(#filter1_i_260_516)">
<path fill-rule="evenodd" clip-rule="evenodd" d="M16.3535 20.01V39.83C16.3535 42.448 17.6255 44.897 19.8165 46.332C26.5865 50.768 41.5135 60.01 48.3535 60.01C55.1935 60.01 70.1205 50.768 76.8905 46.332C79.0805 44.897 80.3535 42.448 80.3535 39.83V20.01C80.3535 13.382 74.9805 8.01001 68.3535 8.01001H28.3535C21.7265 8.01001 16.3535 13.382 16.3535 20.01ZM31.3535 20.01C30.5579 20.01 29.7948 20.3261 29.2322 20.8887C28.6696 21.4513 28.3535 22.2144 28.3535 23.01C28.3535 23.8057 28.6696 24.5687 29.2322 25.1313C29.7948 25.6939 30.5579 26.01 31.3535 26.01H49.3535C50.1492 26.01 50.9122 25.6939 51.4748 25.1313C52.0374 24.5687 52.3535 23.8057 52.3535 23.01C52.3535 22.2144 52.0374 21.4513 51.4748 20.8887C50.9122 20.3261 50.1492 20.01 49.3535 20.01H31.3535ZM31.3535 34.01C30.5579 34.01 29.7948 34.3261 29.2322 34.8887C28.6696 35.4513 28.3535 36.2144 28.3535 37.01C28.3535 37.8057 28.6696 38.5687 29.2322 39.1313C29.7948 39.6939 30.5579 40.01 31.3535 40.01H61.3535C62.1492 40.01 62.9122 39.6939 63.4748 39.1313C64.0374 38.5687 64.3535 37.8057 64.3535 37.01C64.3535 36.2144 64.0374 35.4513 63.4748 34.8887C62.9122 34.3261 62.1492 34.01 61.3535 34.01H31.3535Z" fill="white" fill-opacity="0.04"/>
</g>
<path d="M28.3535 23.01C28.3535 22.2144 28.6696 21.4513 29.2322 20.8887C29.7948 20.3261 30.5579 20.01 31.3535 20.01H49.3535C50.1492 20.01 50.9122 20.3261 51.4748 20.8887C52.0374 21.4513 52.3535 22.2144 52.3535 23.01C52.3535 23.8057 52.0374 24.5687 51.4748 25.1313C50.9122 25.6939 50.1492 26.01 49.3535 26.01H31.3535C30.5579 26.01 29.7948 25.6939 29.2322 25.1313C28.6696 24.5687 28.3535 23.8057 28.3535 23.01ZM28.3535 37.01C28.3535 36.2144 28.6696 35.4513 29.2322 34.8887C29.7948 34.3261 30.5579 34.01 31.3535 34.01H61.3535C62.1492 34.01 62.9122 34.3261 63.4748 34.8887C64.0374 35.4513 64.3535 36.2144 64.3535 37.01C64.3535 37.8057 64.0374 38.5687 63.4748 39.1313C62.9122 39.6939 62.1492 40.01 61.3535 40.01H31.3535C30.5579 40.01 29.7948 39.6939 29.2322 39.1313C28.6696 38.5687 28.3535 37.8057 28.3535 37.01Z" fill="#B76E00"/>
<path d="M16.3535 25.014C14.5755 26.3339 12.814 27.676 11.0695 29.04C8.66152 30.923 7.15152 33.7 6.94852 36.75C6.67052 40.9 6.35352 47.868 6.35352 58.01C6.35352 67.601 6.92152 74.353 7.45152 78.568C7.88952 82.044 10.2165 84.8 13.6475 85.508C19.1475 86.644 29.6525 88.01 48.3535 88.01C67.0545 88.01 77.5595 86.644 83.0595 85.508C86.4905 84.8 88.8175 82.044 89.2555 78.568C89.7855 74.353 90.3535 67.601 90.3535 58.01C90.3535 47.868 90.0365 40.9 89.7585 36.75C89.5555 33.7 88.0455 30.923 85.6385 29.04C83.8937 27.676 82.1319 26.3339 80.3535 25.014V39.83C80.3535 42.449 79.0815 44.897 76.8905 46.332C70.1205 50.768 55.1935 60.01 48.3535 60.01C41.5135 60.01 26.5865 50.768 19.8165 46.332C17.6265 44.897 16.3535 42.45 16.3535 39.83V25.014Z" fill="#1CA5E6"/>
<g style="mix-blend-mode:overlay" filter="url(#filter2_i_260_516)">
<path d="M16.3535 25.014C14.5755 26.3339 12.814 27.676 11.0695 29.04C8.66152 30.923 7.15152 33.7 6.94852 36.75C6.67052 40.9 6.35352 47.868 6.35352 58.01C6.35352 67.601 6.92152 74.353 7.45152 78.568C7.88952 82.044 10.2165 84.8 13.6475 85.508C19.1475 86.644 29.6525 88.01 48.3535 88.01C67.0545 88.01 77.5595 86.644 83.0595 85.508C86.4905 84.8 88.8175 82.044 89.2555 78.568C89.7855 74.353 90.3535 67.601 90.3535 58.01C90.3535 47.868 90.0365 40.9 89.7585 36.75C89.5555 33.7 88.0455 30.923 85.6385 29.04C83.8937 27.676 82.1319 26.3339 80.3535 25.014V39.83C80.3535 42.449 79.0815 44.897 76.8905 46.332C70.1205 50.768 55.1935 60.01 48.3535 60.01C41.5135 60.01 26.5865 50.768 19.8165 46.332C17.6265 44.897 16.3535 42.45 16.3535 39.83V25.014Z" fill="white" fill-opacity="0.04"/>
</g>
<defs>
<filter id="filter0_di_260_516" x="12.3535" y="4.01001" width="80" height="68" filterUnits="userSpaceOnUse" color-interpolation-filters="sRGB">
<feFlood flood-opacity="0" result="BackgroundImageFix"/>
<feColorMatrix in="SourceAlpha" type="matrix" values="0 0 0 0 0 0 0 0 0 0 0 0 0 0 0 0 0 0 127 0" result="hardAlpha"/>
<feOffset dx="4" dy="4"/>
<feGaussianBlur stdDeviation="4"/>
<feColorMatrix type="matrix" values="0 0 0 0 0.717647 0 0 0 0 0.431373 0 0 0 0 0 0 0 0 0.16 0"/>
<feBlend mode="normal" in2="BackgroundImageFix" result="effect1_dropShadow_260_516"/>
<feBlend mode="normal" in="SourceGraphic" in2="effect1_dropShadow_260_516" result="shape"/>
<feColorMatrix in="SourceAlpha" type="matrix" values="0 0 0 0 0 0 0 0 0 0 0 0 0 0 0 0 0 0 127 0" result="hardAlpha"/>
<feOffset dx="-1" dy="-1"/>
<feGaussianBlur stdDeviation="1"/>
<feComposite in2="hardAlpha" operator="arithmetic" k2="-1" k3="1"/>
<feColorMatrix type="matrix" values="0 0 0 0 0.717647 0 0 0 0 0.431373 0 0 0 0 0 0 0 0 0.48 0"/>
<feBlend mode="normal" in2="shape" result="effect2_innerShadow_260_516"/>
</filter>
<filter id="filter1_i_260_516" x="14.3535" y="6.01001" width="66" height="54" filterUnits="userSpaceOnUse" color-interpolation-filters="sRGB">
<feFlood flood-opacity="0" result="BackgroundImageFix"/>
<feBlend mode="normal" in="SourceGraphic" in2="BackgroundImageFix" result="shape"/>
<feColorMatrix in="SourceAlpha" type="matrix" values="0 0 0 0 0 0 0 0 0 0 0 0 0 0 0 0 0 0 127 0" result="hardAlpha"/>
<feOffset dx="-2" dy="-2"/>
<feGaussianBlur stdDeviation="2"/>
<feComposite in2="hardAlpha" operator="arithmetic" k2="-1" k3="1"/>
<feColorMatrix type="matrix" values="0 0 0 0 0 0 0 0 0 0 0 0 0 0 0 0 0 0 0.4 0"/>
<feBlend mode="normal" in2="shape" result="effect1_innerShadow_260_516"/>
</filter>
<filter id="filter2_i_260_516" x="4.35352" y="23.014" width="86" height="64.996" filterUnits="userSpaceOnUse" color-interpolation-filters="sRGB">
<feFlood flood-opacity="0" result="BackgroundImageFix"/>
<feBlend mode="normal" in="SourceGraphic" in2="BackgroundImageFix" result="shape"/>
<feColorMatrix in="SourceAlpha" type="matrix" values="0 0 0 0 0 0 0 0 0 0 0 0 0 0 0 0 0 0 127 0" result="hardAlpha"/>
<feOffset dx="-2" dy="-2"/>
<feGaussianBlur stdDeviation="2"/>
<feComposite in2="hardAlpha" operator="arithmetic" k2="-1" k3="1"/>
<feColorMatrix type="matrix" values="0 0 0 0 0 0 0 0 0 0 0 0 0 0 0 0 0 0 0.4 0"/>
<feBlend mode="normal" in2="shape" result="effect1_innerShadow_260_516"/>
</filter>
</defs>
</svg>
