<svg width="96" height="96" viewBox="0 0 96 96" fill="none" xmlns="http://www.w3.org/2000/svg">
<path d="M36.324 29.4V37.16C36.324 38.4338 35.818 39.6555 34.9172 40.5562C34.0165 41.457 32.7949 41.963 31.521 41.963C30.2472 41.963 29.0255 41.457 28.1248 40.5562C27.224 39.6555 26.718 38.4338 26.718 37.16V29.4C26.718 17.723 36.123 8.20201 47.755 8.01201L48.108 8.01001C59.786 8.01001 69.307 17.415 69.496 29.047L69.499 29.4V37.16C69.499 38.4338 68.993 39.6555 68.0922 40.5562C67.1915 41.457 65.9698 41.963 64.696 41.963C63.4222 41.963 62.2005 41.457 61.2998 40.5562C60.399 39.6555 59.893 38.4338 59.893 37.16V29.4C59.893 22.967 54.712 17.722 48.303 17.617L48.109 17.616C41.61 17.616 36.324 22.902 36.324 29.4Z" fill="#FFD666"/>
<g style="mix-blend-mode:overlay" filter="url(#filter0_i_234_364)">
<path d="M36.324 29.4V41.963H26.718V29.4C26.718 17.723 36.123 8.20201 47.755 8.01201L48.108 8.01001C59.786 8.01001 69.307 17.415 69.496 29.047L69.499 29.4V41.963H59.893V29.4C59.893 22.967 54.712 17.722 48.303 17.617L48.109 17.616C41.61 17.616 36.324 22.902 36.324 29.4Z" fill="white" fill-opacity="0.04"/>
</g>
<path fill-rule="evenodd" clip-rule="evenodd" d="M79.217 68.137C79.217 79.115 70.317 88.014 59.34 88.014H36.877C25.9 88.014 17 79.115 17 68.138V47.888C17 45.6928 17.872 43.5875 19.4243 42.0353C20.9765 40.483 23.0818 39.611 25.277 39.611H70.94C73.1352 39.611 75.2405 40.483 76.7927 42.0353C78.345 43.5875 79.217 45.6928 79.217 47.888V68.137ZM44.51 66.872C44.51 67.8262 44.8891 68.7414 45.5638 69.4162C46.2386 70.0909 47.1538 70.47 48.108 70.47H49.5C50.0851 70.47 50.6462 70.2376 51.0599 69.8239C51.4736 69.4102 51.706 68.8491 51.706 68.264C51.706 67.354 52.276 66.559 53.064 66.106C53.8968 65.629 54.656 65.0338 55.318 64.339C56.251 63.362 56.9734 62.2039 57.4404 60.9363C57.9074 59.6687 58.1091 58.3187 58.033 56.97C57.765 51.794 53.495 47.658 48.309 47.553H48.245L48.111 47.554H48.107C43.464 47.554 38.955 51.132 38.259 56.111C38.188 56.656 38.626 57.114 39.175 57.114H45.379C45.3815 57.1137 45.3838 57.1126 45.3854 57.1107C45.3871 57.1089 45.388 57.1065 45.388 57.104C45.414 56.917 45.458 56.737 45.52 56.564L45.54 56.508L45.571 56.429L45.599 56.365C45.8012 55.9103 46.1247 55.52 46.534 55.237L46.604 55.19L46.664 55.152L46.708 55.126L46.756 55.098C46.8261 55.0589 46.8978 55.0229 46.971 54.99L47.058 54.952C47.103 54.934 47.148 54.917 47.194 54.902L47.254 54.882C47.3689 54.8447 47.4862 54.815 47.605 54.793L47.662 54.783L47.72 54.775L47.787 54.766L47.915 54.755L47.976 54.751L48.039 54.749H48.107L48.109 54.751L48.165 54.749C49.571 54.778 50.775 55.939 50.847 57.344C50.8683 57.7171 50.8129 58.0906 50.6843 58.4415C50.5556 58.7923 50.3564 59.1131 50.099 59.384L50.05 59.433L49.99 59.49C49.501 59.9535 48.8576 60.2193 48.184 60.236L48.108 60.237H47.432C46.657 60.237 45.9138 60.5448 45.3658 61.0928C44.8179 61.6408 44.51 62.384 44.51 63.159V66.872ZM48.108 72.985C47.1826 73.0068 46.3025 73.3898 45.6558 74.0519C45.009 74.714 44.6468 75.6029 44.6467 76.5285C44.6466 77.4541 45.0085 78.3431 45.6551 79.0054C46.3017 79.6677 47.1817 80.0509 48.107 80.073H48.171C49.1109 80.0646 50.009 79.6832 50.6678 79.0127C51.3265 78.3422 51.6919 77.4374 51.6835 76.4975C51.6751 75.5576 51.2937 74.6595 50.6232 74.0007C49.9527 73.342 49.0479 72.9766 48.108 72.985Z" fill="#1CA5E6"/>
<g style="mix-blend-mode:overlay" filter="url(#filter1_i_234_364)">
<path fill-rule="evenodd" clip-rule="evenodd" d="M79.217 68.137C79.217 79.115 70.317 88.014 59.34 88.014H36.877C25.9 88.014 17 79.115 17 68.138V47.888C17 45.6928 17.872 43.5875 19.4243 42.0353C20.9765 40.483 23.0818 39.611 25.277 39.611H70.94C73.1352 39.611 75.2405 40.483 76.7927 42.0353C78.345 43.5875 79.217 45.6928 79.217 47.888V68.137ZM44.51 66.872C44.51 67.8262 44.8891 68.7414 45.5638 69.4162C46.2386 70.0909 47.1538 70.47 48.108 70.47H49.5C50.0851 70.47 50.6462 70.2376 51.0599 69.8239C51.4736 69.4102 51.706 68.8491 51.706 68.264C51.706 67.354 52.276 66.559 53.064 66.106C53.8968 65.629 54.656 65.0338 55.318 64.339C56.251 63.362 56.9734 62.2039 57.4404 60.9363C57.9074 59.6687 58.1091 58.3187 58.033 56.97C57.765 51.794 53.495 47.658 48.309 47.553H48.245L48.111 47.554H48.107C43.464 47.554 38.955 51.132 38.259 56.111C38.188 56.656 38.626 57.114 39.175 57.114H45.379C45.3815 57.1137 45.3838 57.1126 45.3854 57.1107C45.3871 57.1089 45.388 57.1065 45.388 57.104C45.414 56.917 45.458 56.737 45.52 56.564L45.54 56.508L45.571 56.429L45.599 56.365C45.8012 55.9103 46.1247 55.52 46.534 55.237L46.604 55.19L46.664 55.152L46.708 55.126L46.756 55.098C46.8261 55.0589 46.8978 55.0229 46.971 54.99L47.058 54.952C47.103 54.934 47.148 54.917 47.194 54.902L47.254 54.882C47.3689 54.8447 47.4862 54.815 47.605 54.793L47.662 54.783L47.72 54.775L47.787 54.766L47.915 54.755L47.976 54.751L48.039 54.749H48.107L48.109 54.751L48.165 54.749C49.571 54.778 50.775 55.939 50.847 57.344C50.8683 57.7171 50.8129 58.0906 50.6843 58.4415C50.5556 58.7923 50.3564 59.1131 50.099 59.384L50.05 59.433L49.99 59.49C49.501 59.9535 48.8576 60.2193 48.184 60.236L48.108 60.237H47.432C46.657 60.237 45.9138 60.5448 45.3658 61.0928C44.8179 61.6408 44.51 62.384 44.51 63.159V66.872ZM48.108 72.985C47.1826 73.0068 46.3025 73.3898 45.6558 74.0519C45.009 74.714 44.6468 75.6029 44.6467 76.5285C44.6466 77.4541 45.0085 78.3431 45.6551 79.0054C46.3017 79.6677 47.1817 80.0509 48.107 80.073H48.171C49.1109 80.0646 50.009 79.6832 50.6678 79.0127C51.3265 78.3422 51.6919 77.4374 51.6835 76.4975C51.6751 75.5576 51.2937 74.6595 50.6232 74.0007C49.9527 73.342 49.0479 72.9766 48.108 72.985Z" fill="white" fill-opacity="0.04"/>
</g>
<path fill-rule="evenodd" clip-rule="evenodd" d="M48.109 70.456C47.6364 70.456 47.1685 70.3629 46.7319 70.182C46.2953 70.0011 45.8986 69.736 45.5645 69.4018C45.2304 69.0676 44.9654 68.6708 44.7846 68.2342C44.6039 67.7976 44.5109 67.3296 44.511 66.857V63.145C44.511 62.37 44.8189 61.6268 45.3669 61.0788C45.9148 60.5309 46.6581 60.223 47.433 60.223H48.109L48.184 60.222C48.8583 60.2058 49.5025 59.94 49.992 59.476L50.052 59.418L50.1 59.368C50.3572 59.0973 50.5563 58.7769 50.6849 58.4264C50.8135 58.0759 50.8691 57.7028 50.848 57.33C50.776 55.924 49.572 54.763 48.167 54.735L48.11 54.736L48.108 54.734H48.039L47.977 54.737L47.916 54.74C47.8733 54.743 47.8306 54.747 47.788 54.752L47.721 54.76L47.663 54.77L47.606 54.779C47.4869 54.8007 47.3693 54.8301 47.254 54.867L47.195 54.887C47.1493 54.9028 47.1039 54.9198 47.059 54.938L46.972 54.975L46.992 54.966C46.9119 55.0013 46.8335 55.0404 46.757 55.083L46.709 55.111L46.665 55.137L46.605 55.175L46.535 55.222C46.1253 55.5055 45.8018 55.8965 45.6 56.352L45.572 56.415L45.542 56.494L45.521 56.55C45.459 56.7251 45.4148 56.906 45.389 57.09C45.389 57.0927 45.388 57.0952 45.3861 57.0971C45.3842 57.0989 45.3817 57.1 45.379 57.1H39.176C38.626 57.1 38.189 56.641 38.26 56.097C38.956 51.117 43.465 47.539 48.108 47.539H48.31C53.496 47.644 57.766 51.779 58.034 56.956C58.11 58.3046 57.9082 59.6544 57.4412 60.9218C56.9742 62.1892 56.2519 63.3472 55.319 64.324C54.6571 65.0192 53.8978 65.6147 53.065 66.092C52.277 66.544 51.707 67.341 51.707 68.249C51.7072 68.5388 51.6502 68.8257 51.5394 69.0935C51.4286 69.3613 51.2661 69.6046 51.0613 69.8095C50.8564 70.0145 50.6132 70.1771 50.3455 70.288C50.0777 70.3989 49.7908 70.456 49.501 70.456H48.109ZM48.109 72.97C49.049 72.9616 49.9537 73.327 50.6242 73.9857C51.2948 74.6445 51.6762 75.5426 51.6845 76.4825C51.6929 77.4224 51.3275 78.3272 50.6688 78.9977C50.0101 79.6682 49.112 80.0496 48.172 80.058H48.108C47.1827 80.036 46.3026 79.653 45.6559 78.9907C45.0092 78.3285 44.6472 77.4396 44.6472 76.514C44.6472 75.5884 45.0092 74.6995 45.6559 74.0373C46.3026 73.375 47.1837 72.992 48.109 72.97Z" fill="white"/>
<defs>
<filter id="filter0_i_234_364" x="24.718" y="6.01001" width="44.781" height="35.953" filterUnits="userSpaceOnUse" color-interpolation-filters="sRGB">
<feFlood flood-opacity="0" result="BackgroundImageFix"/>
<feBlend mode="normal" in="SourceGraphic" in2="BackgroundImageFix" result="shape"/>
<feColorMatrix in="SourceAlpha" type="matrix" values="0 0 0 0 0 0 0 0 0 0 0 0 0 0 0 0 0 0 127 0" result="hardAlpha"/>
<feOffset dx="-2" dy="-2"/>
<feGaussianBlur stdDeviation="2"/>
<feComposite in2="hardAlpha" operator="arithmetic" k2="-1" k3="1"/>
<feColorMatrix type="matrix" values="0 0 0 0 0 0 0 0 0 0 0 0 0 0 0 0 0 0 0.4 0"/>
<feBlend mode="normal" in2="shape" result="effect1_innerShadow_234_364"/>
</filter>
<filter id="filter1_i_234_364" x="15" y="37.611" width="64.217" height="50.403" filterUnits="userSpaceOnUse" color-interpolation-filters="sRGB">
<feFlood flood-opacity="0" result="BackgroundImageFix"/>
<feBlend mode="normal" in="SourceGraphic" in2="BackgroundImageFix" result="shape"/>
<feColorMatrix in="SourceAlpha" type="matrix" values="0 0 0 0 0 0 0 0 0 0 0 0 0 0 0 0 0 0 127 0" result="hardAlpha"/>
<feOffset dx="-2" dy="-2"/>
<feGaussianBlur stdDeviation="2"/>
<feComposite in2="hardAlpha" operator="arithmetic" k2="-1" k3="1"/>
<feColorMatrix type="matrix" values="0 0 0 0 0 0 0 0 0 0 0 0 0 0 0 0 0 0 0.4 0"/>
<feBlend mode="normal" in2="shape" result="effect1_innerShadow_234_364"/>
</filter>
</defs>
</svg>
