<?xml version="1.0" encoding="UTF-8"?>
<svg id="Layer_2" data-name="Layer 2" xmlns="http://www.w3.org/2000/svg" viewBox="0 0 231 274.65">
  <defs>
    <style>
      .cls-1 {
        fill: red;
        stroke-width: 0px;
      }
    </style>
  </defs>
  <g id="objects">
    <path class="cls-1" d="M151.02,92.36l-.13.19c-.89,1.3-1.87,2.49-2.89,3.62-1.02,1.14-2.04,2.28-3.12,3.36-1.09,1.06-2.17,2.14-3.27,3.2l-1.64,1.6-1.61,1.64c-4,4.04-7.88,8.24-11.7,12.52-.29.32-.58.66-.87.98-.31.35-.62.7-.93,1.06l.53.47,1.47,1.33,2.09,1.9c2.35,2.17,4.69,4.35,6.98,6.6l1.71,1.68,1.7,1.72c1.13,1.15,2.27,2.27,3.32,3.52.53.61,1.06,1.22,1.56,1.86.51.62,1.01,1.25,1.48,1.93.94,1.33,1.84,2.71,2.61,4.17,1.37,2.62.36,5.86-2.25,7.23-1.81.95-3.91.77-5.49-.31l-.19-.13c-1.31-.89-2.49-1.87-3.63-2.89-1.13-1.01-2.28-2.04-3.35-3.12-1.06-1.08-2.14-2.16-3.21-3.27l-1.6-1.63-1.63-1.61c-2.7-2.69-5.48-5.31-8.29-7.88l-2.2,2.52-3.22,3.55c-2.19,2.36-4.36,4.7-6.61,6.98l-1.69,1.72-1.72,1.7c-1.16,1.12-2.27,2.27-3.5,3.33-.62.52-1.23,1.05-1.86,1.55-.64.52-1.26,1.02-1.94,1.49-1.33.94-2.7,1.83-4.17,2.6-2.61,1.38-5.84.37-7.23-2.25-.95-1.81-.76-3.91.3-5.5l.14-.19c.88-1.3,1.87-2.48,2.88-3.62,1.02-1.14,2.04-2.28,3.12-3.35s2.17-2.15,3.26-3.21l1.65-1.6,1.61-1.64c3.99-4.04,7.88-8.24,11.69-12.51.3-.33.58-.66.88-.99.31-.35.62-.7.93-1.06l-.54-.46-1.46-1.33-2.09-1.9c-2.35-2.17-4.69-4.35-6.97-6.6l-1.72-1.69-1.7-1.71c-1.12-1.16-2.27-2.28-3.32-3.52-.53-.61-1.06-1.23-1.56-1.86-.5-.63-1.01-1.26-1.48-1.93-.93-1.33-1.83-2.7-2.6-4.17-1.38-2.62-.37-5.85,2.25-7.23,1.8-.95,3.9-.76,5.49.31l.19.13c1.31.9,2.48,1.87,3.62,2.89,1.14,1.02,2.28,2.04,3.35,3.12,1.06,1.08,2.15,2.16,3.21,3.26l1.6,1.65,1.64,1.61c2.71,2.67,5.47,5.29,8.3,7.87l2.2-2.52,3.22-3.55c2.18-2.36,4.36-4.69,6.61-6.98l1.68-1.72,1.72-1.71c1.15-1.11,2.27-2.27,3.51-3.31.61-.53,1.22-1.06,1.86-1.56s1.26-1.02,1.93-1.49c1.34-.93,2.71-1.83,4.17-2.6,2.62-1.37,5.85-.37,7.23,2.25.95,1.81.77,3.91-.31,5.5Z"/>
    <path class="cls-1" d="M194.87,0H36.13C16.18,0,0,16.18,0,36.13v169.74c0,19.95,16.18,36.13,36.13,36.13h52.14l16.56,28.54c2.85,4.91,9.69,5.54,13.39,1.24l25.61-29.78h51.03c19.95,0,36.13-16.18,36.13-36.13V36.13c0-19.95-16.18-36.13-36.13-36.13ZM118.66,184.77c-34.51,0-62.5-27.99-62.5-62.5s27.99-62.5,62.5-62.5,62.5,27.98,62.5,62.5-27.98,62.5-62.5,62.5Z"/>
  </g>
</svg>