<?xml version="1.0" encoding="UTF-8"?>
<svg id="Layer_2" data-name="Layer 2" xmlns="http://www.w3.org/2000/svg" viewBox="0 0 231 275.22">
  <defs>
    <style>
      .cls-1 {
        fill: #248b04;
        stroke-width: 0px;
      }
    </style>
  </defs>
  <g id="objects">
    <g>
      <path class="cls-1" d="M169.41,85.79c-4.24,4.95-8.39,10-12.48,15.12-5.82,7.26-11.44,14.71-16.99,22.21-2.78,3.75-5.5,7.54-8.21,11.35-2.7,3.81-5.38,7.63-8,11.48l-.16.23c-2.64,3.88-7.85,4.95-11.8,2.53-3.24-1.99-6.42-4.29-9.35-6.96-2.93-2.66-5.61-5.67-7.9-8.87-2.28-3.21-4.19-6.6-5.78-10.02-1.89-4.09-3.33-8.24-4.56-12.35-.37-1.22-.17-2.54.51-3.62,4.49-7.12,12.7-5.33,14.93.33l.05.13c2.25,5.76,4.95,11.07,8.41,15.42.53.67,1.08,1.31,1.64,1.94,1.93,2.15,5.36,1.88,6.95-.53.01-.01.02-.03.03-.04,2.68-3.98,5.38-7.94,8.13-11.87,5.48-7.87,11.21-15.57,17.09-23.18l4.45-5.68,4.58-5.6c1.61-1.94,3.23-3.87,4.87-5.79,5.21,3.85,9.8,8.5,13.59,13.77Z"/>
      <path class="cls-1" d="M194.87,0H36.13C16.18,0,0,16.18,0,36.13v169.74c0,19.95,16.18,36.13,36.13,36.13h47.38l17.12,29.5c2.57,4.44,8.76,5.01,12.11,1.12l26.34-30.62h55.79c19.95,0,36.13-16.18,36.13-36.13V36.13c0-19.95-16.18-36.13-36.13-36.13ZM118.66,184.77c-34.51,0-62.5-27.99-62.5-62.5s27.99-62.5,62.5-62.5c13.92,0,26.77,4.54,37.16,12.25,5.21,3.85,9.8,8.5,13.59,13.77,7.39,10.26,11.75,22.86,11.75,36.48,0,34.51-27.98,62.5-62.5,62.5Z"/>
    </g>
  </g>
</svg>