<svg width="96" height="96" viewBox="0 0 96 96" fill="none" xmlns="http://www.w3.org/2000/svg">
<path d="M80.476 16.0101C78.476 14.0101 31.932 51.843 28.207 59.662C28.207 59.662 28.052 88.911 33.417 89.7551C36.321 89.7551 41.645 74.3451 42.767 71C42.91 70.572 43.106 70.195 43.379 69.837C55.076 54.494 82.453 17.9871 80.476 16.0101Z" fill="#005A78"/>
<path d="M11.1669 39.109C8.65694 40.825 8.56094 44.052 10.8479 46.055C13.9079 48.735 19.2199 53.073 28.2069 59.675V59.662C31.9309 51.842 78.4759 14.01 80.4759 16.01C82.4529 17.987 55.0759 54.494 43.3789 69.836C43.1059 70.196 42.9089 70.572 42.7659 70.999C41.6839 74.226 36.6949 88.671 33.7359 89.698C40.0619 88.478 46.3589 83.419 52.1939 76.433C59.5969 81.32 64.8369 84.467 68.0229 86.293C70.2509 87.572 72.9849 87.097 74.1569 84.811C80.9209 71.609 88.5439 32.488 89.9779 11.992C90.2089 8.68703 87.5309 6.04103 84.2709 6.63703C63.9759 10.351 25.0569 29.614 11.1669 39.109Z" fill="#1CA5E6"/>
<g style="mix-blend-mode:overlay" filter="url(#filter0_i_284_725)">
<path d="M11.1669 39.109C8.65694 40.825 8.56094 44.052 10.8479 46.055C13.9079 48.735 19.2199 53.073 28.2069 59.675V59.662C31.9309 51.842 78.4759 14.01 80.4759 16.01C82.4529 17.987 55.0759 54.494 43.3789 69.836C43.1059 70.196 42.9089 70.572 42.7659 70.999C41.6839 74.226 36.6949 88.671 33.7359 89.698C40.0619 88.478 46.3589 83.419 52.1939 76.433C59.5969 81.32 64.8369 84.467 68.0229 86.293C70.2509 87.572 72.9849 87.097 74.1569 84.811C80.9209 71.609 88.5439 32.488 89.9779 11.992C90.2089 8.68703 87.5309 6.04103 84.2709 6.63703C63.9759 10.351 25.0569 29.614 11.1669 39.109Z" fill="white" fill-opacity="0.04"/>
</g>
<defs>
<filter id="filter0_i_284_725" x="7.2052" y="4.55273" width="82.7866" height="85.1453" filterUnits="userSpaceOnUse" color-interpolation-filters="sRGB">
<feFlood flood-opacity="0" result="BackgroundImageFix"/>
<feBlend mode="normal" in="SourceGraphic" in2="BackgroundImageFix" result="shape"/>
<feColorMatrix in="SourceAlpha" type="matrix" values="0 0 0 0 0 0 0 0 0 0 0 0 0 0 0 0 0 0 127 0" result="hardAlpha"/>
<feOffset dx="-2" dy="-2"/>
<feGaussianBlur stdDeviation="2"/>
<feComposite in2="hardAlpha" operator="arithmetic" k2="-1" k3="1"/>
<feColorMatrix type="matrix" values="0 0 0 0 0 0 0 0 0 0 0 0 0 0 0 0 0 0 0.4 0"/>
<feBlend mode="normal" in2="shape" result="effect1_innerShadow_284_725"/>
</filter>
</defs>
</svg>
