<svg width="128" height="37" viewBox="0 0 128 37" fill="none" xmlns="http://www.w3.org/2000/svg">
<path fill-rule="evenodd" clip-rule="evenodd" d="M8.57103 5.5166H2.43809V11.2976H0V16.3732H2.43809V29.4213C2.43809 31.386 3.0916 33.1745 4.41119 34.2576C6.19578 35.8068 8.80981 36.4617 11.9014 36.2728H12.7937V31.8143H11.9014C9.03603 31.6253 8.57103 31.1593 8.57103 29.4213V16.3732H12.7937V11.2976H8.57103V5.5166Z" fill="white"/>
<path fill-rule="evenodd" clip-rule="evenodd" d="M33.6935 11.335C33.6935 11.335 28.8424 23.6651 27.7365 26.5619C26.6305 23.6777 21.3899 11.335 21.3899 11.335H14.5532L24.6574 35.819H29.9483L39.1855 11.335H33.706H33.6935Z" fill="white"/>
<path fill-rule="evenodd" clip-rule="evenodd" d="M55.3473 29.5976C53.5627 30.3281 52.0169 31.2349 49.9935 31.0334C46.9145 31.0334 45.1425 27.3305 45.1425 23.7159C45.1425 20.1012 46.6757 16.0583 49.5662 15.7686C50.8607 15.7686 52.6453 16.1968 54.6561 17.1666L55.3724 17.5193L57.5466 13.2245L57.0565 12.9348C52.6453 10.2773 47.5429 10.0884 44.0365 12.4562C40.7187 14.7233 38.7456 19.1062 38.7456 23.7284C38.7456 29.9376 42.4907 36.1594 48.8876 36.3483C52.1551 36.3483 54.9828 35.5045 57.9236 33.6782L58.7154 33.2122L56.6292 29.0686L55.3473 29.5976Z" fill="white"/>
<path fill-rule="evenodd" clip-rule="evenodd" d="M116.865 10.8188C113.811 10.8188 111.197 11.965 109.199 13.8794C106.773 16.1212 105.492 19.6099 105.492 23.1364C105.492 29.7234 108.973 36.0712 116.626 36.3482C119.68 36.3482 122.345 35.1517 124.293 33.2499C126.479 30.8192 128 27.2927 128 23.1364C128 17.2169 124.092 10.8314 116.865 10.8314V10.8188ZM116.752 31.0963C112.341 30.8947 111.675 26.2347 111.662 23.6024C111.675 18.6024 113.434 16.2597 116.752 16.0456C121.163 16.2471 121.829 20.9072 121.842 23.5395C121.829 28.5395 120.057 30.8947 116.752 31.0963Z" fill="white"/>
<path fill-rule="evenodd" clip-rule="evenodd" d="M93.5399 10.8314C91.7428 10.781 90.021 11.247 88.3118 12.0027V0H82.1538V31.5622L82.2669 31.7512C82.2669 31.7512 85.2202 36.0963 93.4896 36.3734C95.8146 36.4616 97.9134 35.6051 99.5849 33.993C102.01 31.663 103.481 27.5949 103.519 23.1364C103.519 17.1665 100.439 11.0581 93.5399 10.8314ZM92.9744 31.3229C90.7751 31.4489 89.0282 30.668 88.3118 30.1768V17.2295C89.3926 16.6753 91.0641 15.9574 92.6476 16.0834C95.6135 16.2597 96.908 18.5142 96.908 23.3757C96.908 24.673 96.7195 31.1592 92.9744 31.3229Z" fill="white"/>
<path fill-rule="evenodd" clip-rule="evenodd" d="M71.0064 10.781C67.7012 10.781 65.4893 11.4234 62.3851 12.9977L61.6939 13.4385L63.7173 17.8844L64.3582 17.6325C67.0225 16.2975 68.3421 15.8567 70.1267 15.8567C71.6599 15.8567 73.432 16.9902 73.432 18.7157V19.6099H68.8071C63.7299 19.6099 59.9847 22.9727 59.9847 27.809C59.9847 32.6454 63.7299 36.2475 68.3673 36.2475C72.5522 36.4994 76.5487 34.9124 79.4015 32.0534L79.6529 31.8015V18.5142C79.6529 13.4259 75.2166 10.7559 71.0316 10.7559L71.0064 10.781ZM73.4194 30.0383C72.5397 30.731 71.4463 31.3733 70.1142 31.3733C67.7012 31.1718 66.369 29.396 66.369 27.6201C66.369 25.8443 67.7012 24.5092 69.8628 24.5092H73.4068V30.0383H73.4194Z" fill="white"/>
</svg>
