<svg width="80" height="23" viewBox="0 0 80 23" fill="none" xmlns="http://www.w3.org/2000/svg">
<path fill-rule="evenodd" clip-rule="evenodd" d="M5.3569 3.44781H1.52381V7.06091H0V10.2332H1.52381V18.3882C1.52381 19.6162 1.93225 20.734 2.75699 21.411C3.87236 22.3792 5.50613 22.7885 7.43839 22.6704H7.99607V19.8839H7.43839C5.64752 19.7658 5.3569 19.4745 5.3569 18.3882V10.2332H7.99607V7.06091H5.3569V3.44781Z" fill="#161616"/>
<path fill-rule="evenodd" clip-rule="evenodd" d="M21.0584 7.08447C21.0584 7.08447 18.0265 14.7908 17.3353 16.6013C16.6441 14.7987 13.3687 7.08447 13.3687 7.08447H9.09573L15.4109 22.387H18.7177L24.4909 7.08447H21.0663H21.0584Z" fill="#161616"/>
<path fill-rule="evenodd" clip-rule="evenodd" d="M34.592 18.4985C33.4767 18.955 32.5106 19.5218 31.2459 19.3958C29.3216 19.3958 28.214 17.0816 28.214 14.8224C28.214 12.5632 29.1723 10.0364 30.9789 9.85539C31.7879 9.85539 32.9033 10.123 34.16 10.7291L34.6078 10.9495L35.9666 8.26531L35.6603 8.08426C32.9033 6.42334 29.7143 6.30527 27.5228 7.78514C25.4492 9.20204 24.216 11.9414 24.216 14.8303C24.216 18.711 26.5567 22.5996 30.5547 22.7177C32.597 22.7177 34.3643 22.1903 36.2023 21.0489L36.6971 20.7576L35.3932 18.1679L34.592 18.4985Z" fill="#161616"/>
<path fill-rule="evenodd" clip-rule="evenodd" d="M73.0407 6.76178C71.1321 6.76178 69.4983 7.4781 68.2494 8.67459C66.7334 10.0758 65.9323 12.2562 65.9323 14.4603C65.9323 18.5772 68.108 22.5445 72.8915 22.7176C74.8002 22.7176 76.4654 21.9698 77.6829 20.7812C79.0496 19.262 80 17.0579 80 14.4603C80 10.7606 77.5572 6.76965 73.0407 6.76965V6.76178ZM72.9701 19.4352C70.2131 19.3092 69.7968 16.3967 69.7889 14.7515C69.7968 11.6265 70.8964 10.1623 72.9701 10.0285C75.727 10.1545 76.1433 13.067 76.1512 14.7122C76.1433 17.8372 75.0358 19.3092 72.9701 19.4352Z" fill="#161616"/>
<path fill-rule="evenodd" clip-rule="evenodd" d="M58.4624 6.76963C57.3392 6.73815 56.2631 7.0294 55.1949 7.5017V0H51.3461V19.7264L51.4168 19.8445C51.4168 19.8445 53.2626 22.5602 58.431 22.7334C59.8841 22.7885 61.1959 22.2532 62.2405 21.2456C63.7565 19.7894 64.6755 17.2468 64.6991 14.4603C64.6991 10.7291 62.7747 6.91132 58.4624 6.76963ZM58.109 19.5768C56.7344 19.6556 55.6426 19.1675 55.1949 18.8605V10.7684C55.8704 10.4221 56.9151 9.9734 57.9048 10.0521C59.7585 10.1623 60.5675 11.5714 60.5675 14.6098C60.5675 15.4206 60.4497 19.4745 58.109 19.5768Z" fill="#161616"/>
<path fill-rule="evenodd" clip-rule="evenodd" d="M44.379 6.73816C42.3132 6.73816 40.9308 7.13961 38.9907 8.12357L38.5587 8.39908L39.8233 11.1778L40.2239 11.0203C41.8891 10.1859 42.7138 9.91044 43.8292 9.91044C44.7875 9.91044 45.895 10.6189 45.895 11.6973V12.2562H43.0045C39.8312 12.2562 37.4905 14.3579 37.4905 17.3807C37.4905 20.4034 39.8312 22.6547 42.7295 22.6547C45.3452 22.8121 47.8429 21.8203 49.626 20.0334L49.7831 19.876V11.5714C49.7831 8.39121 47.0103 6.72241 44.3947 6.72241L44.379 6.73816ZM45.8871 18.7739C45.3373 19.2069 44.6539 19.6083 43.8213 19.6083C42.3132 19.4824 41.4806 18.3725 41.4806 17.2626C41.4806 16.1527 42.3132 15.3183 43.6642 15.3183H45.8793V18.7739H45.8871Z" fill="#161616"/>
</svg>
